<svg viewBox="0 0 1531 1099" fill="none" xmlns="http://www.w3.org/2000/svg">
<g clip-path="url(#clip0_101_3)">
<g opacity="0.42">
<path d="M781.963 126.955C782.955 126.448 783.347 125.232 782.839 124.24C782.331 123.248 781.116 122.855 780.124 123.363C779.132 123.87 778.74 125.086 779.248 126.078C779.756 127.07 780.971 127.463 781.963 126.955Z" fill="white"/>
<path d="M607.001 299.879C607.993 299.371 608.385 298.156 607.877 297.164C607.37 296.171 606.154 295.779 605.162 296.286C604.171 296.794 603.778 298.009 604.286 299.002C604.794 299.994 606.01 300.387 607.001 299.879Z" fill="white"/>
<path d="M894.368 277.506C895.359 276.998 895.752 275.782 895.244 274.79C894.736 273.798 893.521 273.405 892.529 273.913C891.537 274.42 891.145 275.636 891.653 276.628C892.16 277.62 893.376 278.013 894.368 277.506Z" fill="white"/>
<path d="M990.539 336.08C991.531 335.573 991.923 334.357 991.415 333.365C990.907 332.373 989.692 331.98 988.7 332.488C987.708 332.995 987.316 334.211 987.824 335.203C988.332 336.195 989.547 336.588 990.539 336.08Z" fill="white"/>
<path d="M823.207 264.61C823.714 265.599 823.32 266.819 822.331 267.325C821.342 267.831 820.122 267.437 819.616 266.448C819.11 265.458 819.503 264.239 820.492 263.732C821.481 263.226 822.701 263.62 823.207 264.61Z" fill="white"/>
<path d="M1015.76 148.561C1016.75 148.054 1017.14 146.838 1016.63 145.846C1016.12 144.854 1014.91 144.461 1013.92 144.968C1012.93 145.476 1012.53 146.692 1013.04 147.684C1013.55 148.676 1014.76 149.069 1015.76 148.561Z" fill="white"/>
<path d="M685.502 112.35C686.008 113.34 685.615 114.56 684.625 115.066C683.636 115.572 682.417 115.178 681.91 114.188C681.404 113.199 681.798 111.979 682.787 111.473C683.776 110.967 684.995 111.361 685.502 112.35Z" fill="white"/>
<path d="M587.744 204.322C588.25 205.311 587.857 206.531 586.868 207.037C585.879 207.543 584.659 207.149 584.153 206.16C583.646 205.17 584.04 203.95 585.029 203.444C586.018 202.938 587.238 203.332 587.744 204.322Z" fill="white"/>
<path d="M529.883 238.085C530.875 237.577 531.267 236.361 530.759 235.369C530.251 234.377 529.036 233.984 528.044 234.492C527.052 235 526.66 236.215 527.168 237.207C527.676 238.199 528.891 238.592 529.883 238.085Z" fill="white"/>
<path d="M550.463 352.023C550.969 353.012 550.576 354.232 549.587 354.738C548.598 355.244 547.378 354.85 546.872 353.861C546.365 352.871 546.759 351.652 547.748 351.145C548.737 350.639 549.957 351.033 550.463 352.023Z" fill="white"/>
<path d="M614.831 390.93C615.822 390.423 616.215 389.207 615.707 388.215C615.199 387.223 613.984 386.83 612.992 387.337C612 387.845 611.608 389.061 612.116 390.053C612.623 391.045 613.839 391.438 614.831 390.93Z" fill="white"/>
<path d="M554.496 586.413C555.003 587.403 554.609 588.622 553.62 589.129C552.631 589.635 551.412 589.241 550.905 588.251C550.399 587.262 550.792 586.042 551.781 585.536C552.77 585.03 553.99 585.424 554.496 586.413Z" fill="white"/>
<path d="M549.596 544.946C550.102 545.936 549.709 547.155 548.72 547.662C547.731 548.168 546.511 547.774 546.005 546.784C545.498 545.795 545.892 544.575 546.881 544.069C547.87 543.563 549.09 543.957 549.596 544.946Z" fill="white"/>
<path d="M576.811 777.731C577.318 778.72 576.924 779.94 575.935 780.446C574.946 780.953 573.727 780.558 573.22 779.569C572.714 778.579 573.107 777.36 574.096 776.854C575.085 776.347 576.305 776.741 576.811 777.731Z" fill="white"/>
<path d="M575.32 704.242C575.827 705.231 575.433 706.451 574.444 706.957C573.455 707.463 572.235 707.069 571.729 706.08C571.222 705.09 571.616 703.871 572.605 703.364C573.594 702.858 574.814 703.252 575.32 704.242Z" fill="white"/>
<path d="M680.019 862.924C681.011 862.416 681.403 861.201 680.895 860.208C680.388 859.216 679.172 858.823 678.18 859.331C677.189 859.839 676.796 861.054 677.304 862.046C677.812 863.039 679.028 863.431 680.019 862.924Z" fill="white"/>
<path d="M636.097 931.914C636.604 932.904 636.21 934.123 635.221 934.63C634.232 935.136 633.013 934.742 632.506 933.752C632 932.763 632.393 931.543 633.382 931.037C634.371 930.531 635.591 930.925 636.097 931.914Z" fill="white"/>
<path d="M937.966 754.44C938.472 755.43 938.079 756.649 937.09 757.155C936.101 757.662 934.881 757.268 934.375 756.278C933.868 755.288 934.262 754.069 935.251 753.563C936.24 753.056 937.46 753.45 937.966 754.44Z" fill="white"/>
<path d="M1049.94 679.148C1050.45 680.137 1050.06 681.357 1049.07 681.863C1048.08 682.369 1046.86 681.975 1046.35 680.986C1045.85 679.996 1046.24 678.776 1047.23 678.27C1048.22 677.764 1049.44 678.158 1049.94 679.148Z" fill="white"/>
<path d="M1041.38 594.925C1041.89 595.914 1041.5 597.134 1040.51 597.64C1039.52 598.147 1038.3 597.752 1037.79 596.763C1037.29 595.773 1037.68 594.554 1038.67 594.048C1039.66 593.541 1040.88 593.935 1041.38 594.925Z" fill="white"/>
<path d="M903.184 644.082C903.69 645.072 903.297 646.291 902.308 646.797C901.318 647.304 900.099 646.91 899.593 645.92C899.086 644.93 899.48 643.711 900.469 643.205C901.458 642.698 902.677 643.092 903.184 644.082Z" fill="white"/>
<path d="M870.13 608.052C870.637 609.042 870.243 610.261 869.254 610.768C868.265 611.274 867.045 610.88 866.539 609.89C866.032 608.901 866.426 607.681 867.415 607.175C868.404 606.669 869.624 607.063 870.13 608.052Z" fill="white"/>
<path d="M843.282 623.656C843.789 624.646 843.395 625.866 842.406 626.372C841.417 626.878 840.198 626.484 839.691 625.494C839.185 624.505 839.578 623.285 840.567 622.779C841.556 622.273 842.776 622.667 843.282 623.656Z" fill="white"/>
<path d="M1191.59 474.709C1192.58 474.201 1192.97 472.985 1192.47 471.993C1191.96 471.001 1190.74 470.608 1189.75 471.116C1188.76 471.623 1188.37 472.839 1188.87 473.831C1189.38 474.823 1190.6 475.216 1191.59 474.709Z" fill="white"/>
<path d="M1110.41 500.121C1111.4 499.614 1111.79 498.398 1111.28 497.406C1110.77 496.414 1109.56 496.021 1108.57 496.529C1107.57 497.036 1107.18 498.252 1107.69 499.244C1108.2 500.236 1109.41 500.629 1110.41 500.121Z" fill="white"/>
<path d="M1160.86 399.256C1161.37 400.245 1160.98 401.465 1159.99 401.971C1159 402.478 1157.78 402.083 1157.27 401.094C1156.77 400.104 1157.16 398.885 1158.15 398.379C1159.14 397.872 1160.36 398.266 1160.86 399.256Z" fill="white"/>
<path d="M1136.91 306.717C1137.9 306.209 1138.3 304.994 1137.79 304.001C1137.28 303.009 1136.06 302.617 1135.07 303.124C1134.08 303.632 1133.69 304.847 1134.2 305.839C1134.7 306.832 1135.92 307.224 1136.91 306.717Z" fill="white"/>
<path d="M1084.13 299.15C1085.12 298.643 1085.51 297.427 1085.01 296.435C1084.5 295.443 1083.28 295.05 1082.29 295.558C1081.3 296.065 1080.91 297.281 1081.41 298.273C1081.92 299.265 1083.14 299.658 1084.13 299.15Z" fill="white"/>
<path d="M1061.5 214.232C1062.49 213.724 1062.89 212.508 1062.38 211.516C1061.87 210.524 1060.66 210.131 1059.66 210.639C1058.67 211.146 1058.28 212.362 1058.79 213.354C1059.3 214.346 1060.51 214.739 1061.5 214.232Z" fill="white"/>
<path d="M1071.39 209.208C1072.39 208.7 1072.78 207.484 1072.27 206.492C1071.76 205.5 1070.55 205.107 1069.56 205.615C1068.56 206.122 1068.17 207.338 1068.68 208.33C1069.19 209.322 1070.4 209.715 1071.39 209.208Z" fill="white"/>
<path d="M786.64 182.657C787.632 182.149 788.024 180.934 787.517 179.942C787.009 178.949 785.793 178.557 784.802 179.064C783.81 179.572 783.418 180.787 783.925 181.779C784.433 182.772 785.649 183.164 786.64 182.657Z" fill="white"/>
<path d="M681.058 309.391C682.049 308.883 682.442 307.667 681.934 306.675C681.426 305.683 680.21 305.29 679.219 305.798C678.227 306.305 677.835 307.521 678.343 308.513C678.85 309.505 680.066 309.898 681.058 309.391Z" fill="white"/>
<path d="M784.813 283.319C785.805 282.811 786.197 281.595 785.69 280.603C785.182 279.611 783.966 279.218 782.975 279.726C781.983 280.233 781.591 281.449 782.098 282.441C782.606 283.433 783.822 283.826 784.813 283.319Z" fill="white"/>
<path d="M467.94 445.245C468.447 446.235 468.053 447.455 467.064 447.961C466.075 448.467 464.855 448.073 464.349 447.083C463.843 446.094 464.236 444.874 465.225 444.368C466.214 443.862 467.434 444.256 467.94 445.245Z" fill="white"/>
<path d="M453.675 556.423C454.667 555.915 455.059 554.7 454.551 553.707C454.043 552.715 452.828 552.323 451.836 552.83C450.844 553.338 450.452 554.553 450.96 555.545C451.468 556.538 452.683 556.93 453.675 556.423Z" fill="white"/>
<path d="M464.006 625.234C464.512 626.224 464.119 627.443 463.129 627.95C462.14 628.456 460.921 628.062 460.414 627.072C459.908 626.083 460.302 624.863 461.291 624.357C462.28 623.851 463.499 624.245 464.006 625.234Z" fill="white"/>
<path d="M385.769 440.252C386.275 441.242 385.882 442.461 384.893 442.967C383.904 443.474 382.684 443.08 382.178 442.09C381.671 441.1 382.065 439.881 383.054 439.375C384.043 438.868 385.263 439.263 385.769 440.252Z" fill="white"/>
<path d="M324.757 295.866C325.264 296.856 324.87 298.075 323.881 298.582C322.892 299.088 321.672 298.694 321.166 297.704C320.659 296.715 321.053 295.495 322.042 294.989C323.031 294.483 324.251 294.877 324.757 295.866Z" fill="white"/>
<path d="M366.889 261.912C367.881 261.404 368.273 260.188 367.765 259.196C367.257 258.204 366.042 257.811 365.05 258.319C364.059 258.826 363.666 260.042 364.174 261.034C364.682 262.026 365.897 262.419 366.889 261.912Z" fill="white"/>
<path d="M594.185 131.96C594.691 132.95 594.298 134.169 593.309 134.675C592.319 135.182 591.1 134.788 590.593 133.798C590.087 132.808 590.481 131.589 591.47 131.083C592.459 130.576 593.678 130.97 594.185 131.96Z" fill="white"/>
<path d="M531.776 187.416C532.282 188.406 531.889 189.625 530.899 190.131C529.91 190.638 528.691 190.244 528.184 189.254C527.678 188.264 528.072 187.045 529.061 186.539C530.05 186.032 531.269 186.426 531.776 187.416Z" fill="white"/>
<path d="M728.423 61.8157C729.415 61.3082 729.807 60.0925 729.299 59.1004C728.791 58.1082 727.576 57.7154 726.584 58.223C725.592 58.7305 725.2 59.9462 725.708 60.9384C726.216 61.9305 727.431 62.3233 728.423 61.8157Z" fill="white"/>
<path d="M739.172 124.803C739.678 125.793 739.285 127.012 738.296 127.519C737.307 128.025 736.087 127.631 735.581 126.641C735.074 125.652 735.468 124.432 736.457 123.926C737.446 123.42 738.665 123.814 739.172 124.803Z" fill="white"/>
<path d="M735.254 203.52C736.246 203.012 736.638 201.796 736.13 200.804C735.622 199.812 734.407 199.419 733.415 199.927C732.423 200.435 732.031 201.65 732.539 202.642C733.047 203.634 734.262 204.027 735.254 203.52Z" fill="white"/>
<path d="M648.171 333.081C648.677 334.07 648.283 335.29 647.294 335.796C646.305 336.302 645.086 335.908 644.579 334.919C644.073 333.929 644.466 332.71 645.456 332.203C646.445 331.697 647.664 332.091 648.171 333.081Z" fill="white"/>
<path d="M619.121 382.279C620.113 381.772 620.505 380.556 619.997 379.564C619.49 378.572 618.274 378.179 617.282 378.686C616.291 379.194 615.898 380.41 616.406 381.402C616.914 382.394 618.13 382.787 619.121 382.279Z" fill="white"/>
<path d="M596.596 492.363C597.587 491.855 597.98 490.639 597.472 489.647C596.964 488.655 595.749 488.262 594.757 488.77C593.765 489.277 593.373 490.493 593.881 491.485C594.388 492.477 595.604 492.87 596.596 492.363Z" fill="white"/>
<path d="M604.451 535.814C605.443 535.306 605.835 534.09 605.327 533.098C604.82 532.106 603.604 531.713 602.612 532.221C601.621 532.728 601.228 533.944 601.736 534.936C602.244 535.928 603.459 536.321 604.451 535.814Z" fill="white"/>
<path d="M646.903 590.395C647.895 589.887 648.287 588.671 647.779 587.679C647.272 586.687 646.056 586.294 645.064 586.802C644.073 587.309 643.68 588.525 644.188 589.517C644.696 590.509 645.911 590.902 646.903 590.395Z" fill="white"/>
<path d="M690.073 624.129C690.58 625.118 690.186 626.338 689.197 626.844C688.208 627.35 686.988 626.956 686.482 625.966C685.975 624.977 686.369 623.757 687.358 623.251C688.347 622.745 689.567 623.139 690.073 624.129Z" fill="white"/>
<path d="M801.754 603.26C802.746 602.753 803.138 601.537 802.63 600.545C802.122 599.553 800.907 599.16 799.915 599.668C798.923 600.175 798.531 601.391 799.039 602.383C799.547 603.375 800.762 603.768 801.754 603.26Z" fill="white"/>
<path d="M885.35 575.019C886.342 574.511 886.734 573.295 886.226 572.303C885.719 571.311 884.503 570.918 883.511 571.426C882.52 571.933 882.127 573.149 882.635 574.141C883.143 575.133 884.358 575.526 885.35 575.019Z" fill="white"/>
<path d="M919.079 564.98C919.585 565.969 919.192 567.189 918.203 567.695C917.214 568.201 915.994 567.807 915.488 566.818C914.981 565.828 915.375 564.609 916.364 564.102C917.353 563.596 918.572 563.99 919.079 564.98Z" fill="white"/>
<path d="M993.459 494.906C994.451 494.398 994.843 493.182 994.335 492.19C993.827 491.198 992.612 490.805 991.62 491.313C990.628 491.82 990.236 493.036 990.744 494.028C991.252 495.02 992.467 495.413 993.459 494.906Z" fill="white"/>
<path d="M972.048 434.686C972.554 435.675 972.16 436.895 971.171 437.401C970.182 437.907 968.963 437.513 968.456 436.524C967.95 435.534 968.343 434.314 969.333 433.808C970.322 433.302 971.541 433.696 972.048 434.686Z" fill="white"/>
<path d="M898.821 343.388C899.813 342.881 900.205 341.665 899.698 340.673C899.19 339.681 897.974 339.288 896.983 339.796C895.991 340.303 895.599 341.519 896.106 342.511C896.614 343.503 897.83 343.896 898.821 343.388Z" fill="white"/>
<path d="M864.697 332.92C865.204 333.909 864.81 335.129 863.821 335.635C862.832 336.141 861.613 335.747 861.106 334.758C860.6 333.768 860.993 332.549 861.982 332.042C862.972 331.536 864.191 331.93 864.697 332.92Z" fill="white"/>
<path d="M842.035 292.129C843.026 291.621 843.419 290.406 842.911 289.413C842.403 288.421 841.188 288.029 840.196 288.536C839.204 289.044 838.812 290.259 839.32 291.251C839.827 292.244 841.043 292.636 842.035 292.129Z" fill="white"/>
<path d="M620.108 423.828C620.614 424.818 620.221 426.037 619.232 426.544C618.243 427.05 617.023 426.656 616.517 425.666C616.01 424.677 616.404 423.457 617.393 422.951C618.382 422.445 619.601 422.839 620.108 423.828Z" fill="white"/>
<path d="M627.145 458.477C627.651 459.466 627.258 460.686 626.269 461.192C625.28 461.698 624.06 461.304 623.554 460.315C623.047 459.325 623.441 458.105 624.43 457.599C625.419 457.093 626.638 457.487 627.145 458.477Z" fill="white"/>
<path d="M667.678 533.846C668.185 534.836 667.791 536.056 666.802 536.562C665.813 537.068 664.593 536.674 664.087 535.684C663.58 534.695 663.974 533.475 664.963 532.969C665.952 532.463 667.172 532.857 667.678 533.846Z" fill="white"/>
<path d="M923.59 505.056C924.581 504.548 924.974 503.333 924.466 502.341C923.958 501.349 922.742 500.956 921.751 501.463C920.759 501.971 920.367 503.187 920.875 504.179C921.382 505.171 922.598 505.564 923.59 505.056Z" fill="white"/>
<path d="M932.743 472.514C933.25 473.504 932.856 474.724 931.867 475.23C930.878 475.736 929.659 475.342 929.152 474.352C928.646 473.363 929.039 472.143 930.028 471.637C931.018 471.131 932.237 471.525 932.743 472.514Z" fill="white"/>
<path d="M944.051 452.511C945.043 452.003 945.435 450.787 944.927 449.795C944.42 448.803 943.204 448.41 942.212 448.918C941.221 449.425 940.828 450.641 941.336 451.633C941.844 452.625 943.06 453.018 944.051 452.511Z" fill="white"/>
<path d="M973.774 409.768C974.28 410.758 973.887 411.978 972.898 412.484C971.909 412.99 970.689 412.596 970.183 411.606C969.676 410.617 970.07 409.397 971.059 408.891C972.048 408.385 973.267 408.779 973.774 409.768Z" fill="white"/>
<path d="M978.795 360.034C979.302 361.024 978.908 362.244 977.919 362.75C976.93 363.256 975.71 362.862 975.204 361.872C974.697 360.883 975.091 359.663 976.08 359.157C977.069 358.651 978.289 359.045 978.795 360.034Z" fill="white"/>
<path d="M967.673 320.368C968.665 319.861 969.057 318.645 968.549 317.653C968.041 316.661 966.826 316.268 965.834 316.776C964.842 317.283 964.45 318.499 964.958 319.491C965.466 320.483 966.681 320.876 967.673 320.368Z" fill="white"/>
<path d="M960.563 294.057C961.069 295.046 960.676 296.266 959.687 296.772C958.697 297.278 957.478 296.884 956.971 295.895C956.465 294.905 956.859 293.686 957.848 293.179C958.837 292.673 960.056 293.067 960.563 294.057Z" fill="white"/>
<path d="M920.568 313.277C921.075 314.267 920.681 315.487 919.692 315.993C918.703 316.499 917.483 316.105 916.977 315.115C916.471 314.126 916.864 312.906 917.853 312.4C918.842 311.894 920.062 312.288 920.568 313.277Z" fill="white"/>
<path d="M915.687 265.845C916.679 265.337 917.071 264.122 916.563 263.13C916.055 262.137 914.84 261.745 913.848 262.252C912.857 262.76 912.464 263.975 912.972 264.968C913.48 265.96 914.695 266.353 915.687 265.845Z" fill="white"/>
<path d="M924.325 264.075C924.832 265.065 924.438 266.284 923.449 266.791C922.46 267.297 921.24 266.903 920.734 265.913C920.228 264.924 920.621 263.704 921.61 263.198C922.599 262.692 923.819 263.086 924.325 264.075Z" fill="white"/>
<path d="M1014.96 321.279C1015.46 322.268 1015.07 323.488 1014.08 323.994C1013.09 324.5 1011.87 324.106 1011.36 323.117C1010.86 322.127 1011.25 320.907 1012.24 320.401C1013.23 319.895 1014.45 320.289 1014.96 321.279Z" fill="white"/>
<path d="M1013.67 373.655C1014.66 373.147 1015.05 371.932 1014.54 370.939C1014.04 369.947 1012.82 369.554 1011.83 370.062C1010.84 370.57 1010.45 371.785 1010.95 372.777C1011.46 373.77 1012.68 374.162 1013.67 373.655Z" fill="white"/>
<path d="M1010.26 370.306C1010.77 371.295 1010.38 372.515 1009.39 373.021C1008.4 373.527 1007.18 373.133 1006.67 372.144C1006.17 371.154 1006.56 369.935 1007.55 369.428C1008.54 368.922 1009.76 369.316 1010.26 370.306Z" fill="white"/>
<path d="M1021.99 529.333C1022.98 528.825 1023.37 527.61 1022.86 526.618C1022.35 525.625 1021.14 525.233 1020.15 525.74C1019.16 526.248 1018.76 527.463 1019.27 528.456C1019.78 529.448 1020.99 529.84 1021.99 529.333Z" fill="white"/>
</g>
<path d="M569.077 299.77C570.069 299.262 570.461 298.047 569.953 297.054C569.446 296.062 568.23 295.669 567.238 296.177C566.247 296.685 565.854 297.9 566.362 298.892C566.87 299.885 568.085 300.277 569.077 299.77Z" fill="white"/>
<path d="M686.315 279.592C686.822 280.582 686.428 281.801 685.439 282.308C684.45 282.814 683.231 282.42 682.724 281.43C682.218 280.441 682.611 279.221 683.6 278.715C684.589 278.209 685.809 278.603 686.315 279.592Z" fill="white"/>
<path d="M593.806 379.905C594.798 379.397 595.19 378.181 594.682 377.189C594.175 376.197 592.959 375.804 591.967 376.312C590.976 376.819 590.584 378.035 591.091 379.027C591.599 380.019 592.815 380.412 593.806 379.905Z" fill="white"/>
<path d="M596.532 338.031C597.039 339.02 596.645 340.24 595.656 340.746C594.667 341.253 593.448 340.858 592.941 339.869C592.435 338.879 592.828 337.66 593.817 337.153C594.807 336.647 596.026 337.041 596.532 338.031Z" fill="white"/>
<path d="M818.142 282.629C818.649 283.618 818.255 284.838 817.266 285.344C816.277 285.85 815.058 285.456 814.551 284.467C814.045 283.477 814.438 282.258 815.427 281.751C816.417 281.245 817.636 281.639 818.142 282.629Z" fill="white"/>
<path d="M618.274 441.519C619.266 441.011 619.658 439.796 619.15 438.804C618.642 437.812 617.427 437.419 616.435 437.926C615.444 438.434 615.051 439.65 615.559 440.642C616.067 441.634 617.282 442.027 618.274 441.519Z" fill="white"/>
<path d="M645.01 506.852C645.516 507.842 645.123 509.061 644.134 509.568C643.145 510.074 641.925 509.68 641.419 508.69C640.912 507.701 641.306 506.481 642.295 505.975C643.284 505.469 644.503 505.863 645.01 506.852Z" fill="white"/>
<path d="M888.02 355.64C888.527 356.63 888.133 357.849 887.144 358.356C886.155 358.862 884.936 358.468 884.429 357.478C883.923 356.489 884.316 355.269 885.305 354.763C886.295 354.257 887.514 354.651 888.02 355.64Z" fill="white"/>
<path d="M880.201 298.339C881.192 297.831 881.585 296.616 881.077 295.623C880.569 294.631 879.354 294.238 878.362 294.746C877.37 295.254 876.978 296.469 877.486 297.461C877.993 298.454 879.209 298.846 880.201 298.339Z" fill="white"/>
<path d="M759.413 245.62C759.919 246.609 759.525 247.829 758.536 248.335C757.547 248.841 756.328 248.447 755.821 247.458C755.315 246.468 755.708 245.249 756.698 244.742C757.687 244.236 758.906 244.63 759.413 245.62Z" fill="white"/>
<path d="M765.104 179.636C766.095 179.128 766.488 177.913 765.98 176.92C765.472 175.928 764.257 175.535 763.265 176.043C762.273 176.551 761.881 177.766 762.389 178.758C762.897 179.75 764.112 180.143 765.104 179.636Z" fill="white"/>
<path d="M621.158 227.66C622.15 227.153 622.542 225.937 622.034 224.945C621.526 223.953 620.311 223.56 619.319 224.068C618.327 224.575 617.935 225.791 618.443 226.783C618.951 227.775 620.166 228.168 621.158 227.66Z" fill="white"/>
<path d="M639.082 258.293C639.589 259.282 639.195 260.502 638.206 261.008C637.217 261.514 635.998 261.12 635.491 260.131C634.985 259.141 635.378 257.922 636.367 257.415C637.356 256.909 638.576 257.303 639.082 258.293Z" fill="white"/>
<path d="M996.743 363.624C997.735 363.116 998.127 361.901 997.62 360.909C997.112 359.916 995.896 359.524 994.905 360.031C993.913 360.539 993.521 361.754 994.028 362.747C994.536 363.739 995.752 364.132 996.743 363.624Z" fill="white"/>
<path d="M1018.8 473.136C1019.31 474.125 1018.92 475.345 1017.93 475.851C1016.94 476.357 1015.72 475.963 1015.21 474.974C1014.71 473.984 1015.1 472.765 1016.09 472.258C1017.08 471.752 1018.3 472.146 1018.8 473.136Z" fill="white"/>
<path d="M1058.31 547.628C1059.3 547.12 1059.69 545.905 1059.19 544.913C1058.68 543.92 1057.46 543.528 1056.47 544.035C1055.48 544.543 1055.09 545.758 1055.6 546.751C1056.1 547.743 1057.32 548.135 1058.31 547.628Z" fill="white"/>
<path d="M961.171 671.347C961.677 672.337 961.283 673.556 960.294 674.062C959.305 674.569 958.086 674.175 957.579 673.185C957.073 672.196 957.466 670.976 958.455 670.47C959.445 669.963 960.664 670.358 961.171 671.347Z" fill="white"/>
<path d="M909.169 709.392C910.161 708.885 910.553 707.669 910.045 706.677C909.537 705.685 908.322 705.292 907.33 705.8C906.338 706.307 905.946 707.523 906.454 708.515C906.962 709.507 908.177 709.9 909.169 709.392Z" fill="white"/>
<path d="M858.823 675.182C859.814 674.674 860.207 673.458 859.699 672.466C859.191 671.474 857.975 671.081 856.984 671.589C855.992 672.096 855.6 673.312 856.108 674.304C856.615 675.296 857.831 675.689 858.823 675.182Z" fill="white"/>
<path d="M915.204 635.413C916.196 634.906 916.588 633.69 916.08 632.698C915.572 631.706 914.357 631.313 913.365 631.821C912.374 632.328 911.981 633.544 912.489 634.536C912.997 635.528 914.212 635.921 915.204 635.413Z" fill="white"/>
<path d="M887.504 605.154C888.011 606.144 887.617 607.363 886.628 607.87C885.639 608.376 884.419 607.982 883.913 606.992C883.407 606.003 883.8 604.783 884.789 604.277C885.778 603.77 886.998 604.165 887.504 605.154Z" fill="white"/>
<path d="M863.318 627.234C864.31 626.727 864.702 625.511 864.194 624.519C863.686 623.527 862.471 623.134 861.479 623.642C860.487 624.149 860.095 625.365 860.603 626.357C861.111 627.349 862.326 627.742 863.318 627.234Z" fill="white"/>
<path d="M588.132 690.442C589.124 689.934 589.516 688.719 589.009 687.726C588.501 686.734 587.285 686.341 586.293 686.849C585.302 687.356 584.91 688.572 585.417 689.564C585.925 690.557 587.141 690.949 588.132 690.442Z" fill="white"/>
<path d="M649.059 710.131C650.051 709.624 650.443 708.408 649.935 707.416C649.427 706.424 648.212 706.031 647.22 706.539C646.228 707.046 645.836 708.262 646.344 709.254C646.852 710.246 648.067 710.639 649.059 710.131Z" fill="white"/>
<path d="M751.161 604.736C751.667 605.726 751.274 606.946 750.284 607.452C749.295 607.958 748.076 607.564 747.57 606.574C747.063 605.585 747.457 604.365 748.446 603.859C749.435 603.353 750.654 603.747 751.161 604.736Z" fill="white"/>
<path d="M656.826 541.495C657.817 540.987 658.21 539.772 657.702 538.779C657.194 537.787 655.978 537.395 654.987 537.902C653.995 538.41 653.603 539.625 654.111 540.617C654.618 541.61 655.834 542.002 656.826 541.495Z" fill="white"/>
<path d="M571.338 579.061C571.845 580.051 571.451 581.27 570.462 581.777C569.473 582.283 568.254 581.889 567.747 580.899C567.241 579.91 567.634 578.69 568.623 578.184C569.613 577.678 570.832 578.072 571.338 579.061Z" fill="white"/>
<path d="M247.687 302.152C248.193 303.142 247.8 304.361 246.81 304.867C245.821 305.374 244.602 304.98 244.095 303.99C243.589 303 243.983 301.781 244.972 301.275C245.961 300.768 247.18 301.163 247.687 302.152Z" fill="white"/>
<path d="M364.064 284.682C364.57 285.672 364.177 286.891 363.188 287.397C362.199 287.904 360.979 287.51 360.473 286.52C359.966 285.531 360.36 284.311 361.349 283.805C362.338 283.298 363.558 283.693 364.064 284.682Z" fill="white"/>
<path d="M271.555 384.995C272.547 384.487 272.939 383.271 272.431 382.279C271.923 381.287 270.708 380.894 269.716 381.402C268.724 381.909 268.332 383.125 268.84 384.117C269.348 385.109 270.563 385.502 271.555 384.995Z" fill="white"/>
<path d="M273.405 345.836C274.397 345.329 274.789 344.113 274.281 343.121C273.773 342.129 272.558 341.736 271.566 342.243C270.574 342.751 270.182 343.967 270.69 344.959C271.198 345.951 272.413 346.344 273.405 345.836Z" fill="white"/>
<path d="M495.891 287.719C496.397 288.708 496.004 289.928 495.015 290.434C494.026 290.94 492.806 290.546 492.3 289.557C491.793 288.567 492.187 287.348 493.176 286.841C494.165 286.335 495.385 286.729 495.891 287.719Z" fill="white"/>
<path d="M296.023 446.609C297.014 446.101 297.407 444.886 296.899 443.894C296.391 442.901 295.175 442.509 294.184 443.016C293.192 443.524 292.8 444.739 293.308 445.732C293.815 446.724 295.031 447.116 296.023 446.609Z" fill="white"/>
<path d="M321.882 514.658C322.874 514.15 323.266 512.934 322.758 511.942C322.251 510.95 321.035 510.557 320.043 511.065C319.052 511.572 318.66 512.788 319.167 513.78C319.675 514.772 320.891 515.165 321.882 514.658Z" fill="white"/>
<path d="M565.769 360.73C566.276 361.72 565.882 362.939 564.893 363.446C563.904 363.952 562.684 363.558 562.178 362.568C561.671 361.579 562.065 360.359 563.054 359.853C564.043 359.347 565.263 359.741 565.769 360.73Z" fill="white"/>
<path d="M558.81 300.721C559.317 301.711 558.923 302.93 557.934 303.436C556.945 303.943 555.726 303.549 555.219 302.559C554.713 301.569 555.106 300.35 556.095 299.844C557.084 299.337 558.304 299.731 558.81 300.721Z" fill="white"/>
<path d="M437.169 250.725C437.675 251.714 437.282 252.934 436.293 253.44C435.304 253.946 434.084 253.552 433.578 252.563C433.071 251.573 433.465 250.354 434.454 249.847C435.443 249.341 436.662 249.735 437.169 250.725Z" fill="white"/>
<path d="M443.713 182.018C444.22 183.008 443.826 184.227 442.837 184.733C441.848 185.24 440.629 184.846 440.122 183.856C439.616 182.866 440.009 181.647 440.998 181.141C441.987 180.634 443.207 181.028 443.713 182.018Z" fill="white"/>
<path d="M299.775 230.058C300.282 231.047 299.888 232.267 298.899 232.773C297.91 233.28 296.69 232.885 296.184 231.896C295.678 230.906 296.071 229.687 297.06 229.18C298.049 228.674 299.269 229.068 299.775 230.058Z" fill="white"/>
<path d="M316.839 263.398C317.345 264.387 316.952 265.607 315.962 266.113C314.973 266.619 313.754 266.225 313.247 265.236C312.741 264.246 313.135 263.027 314.124 262.52C315.113 262.014 316.332 262.408 316.839 263.398Z" fill="white"/>
<path d="M674.5 368.729C675.491 368.221 675.884 367.006 675.376 366.014C674.868 365.022 673.653 364.629 672.661 365.136C671.669 365.644 671.277 366.86 671.785 367.852C672.293 368.844 673.508 369.237 674.5 368.729Z" fill="white"/>
<path d="M696.536 478.233C697.042 479.223 696.649 480.443 695.66 480.949C694.671 481.455 693.451 481.061 692.945 480.071C692.438 479.082 692.832 477.862 693.821 477.356C694.81 476.85 696.03 477.244 696.536 478.233Z" fill="white"/>
<path d="M736.92 550.01C737.427 551 737.033 552.219 736.044 552.726C735.055 553.232 733.835 552.838 733.329 551.848C732.822 550.859 733.216 549.639 734.205 549.133C735.194 548.627 736.414 549.021 736.92 550.01Z" fill="white"/>
<path d="M638.043 679.152C639.035 678.645 639.427 677.429 638.919 676.437C638.411 675.445 637.196 675.052 636.204 675.56C635.212 676.067 634.82 677.283 635.328 678.275C635.836 679.267 637.051 679.66 638.043 679.152Z" fill="white"/>
<path d="M586.917 714.482C587.909 713.975 588.301 712.759 587.794 711.767C587.286 710.775 586.07 710.382 585.079 710.89C584.087 711.397 583.695 712.613 584.202 713.605C584.71 714.597 585.926 714.99 586.917 714.482Z" fill="white"/>
<path d="M537.44 677.579C537.946 678.569 537.553 679.788 536.564 680.294C535.575 680.801 534.355 680.407 533.849 679.417C533.342 678.428 533.736 677.208 534.725 676.702C535.714 676.195 536.933 676.59 537.44 677.579Z" fill="white"/>
<path d="M593.829 637.788C594.335 638.777 593.942 639.997 592.953 640.503C591.964 641.009 590.744 640.615 590.238 639.626C589.731 638.636 590.125 637.417 591.114 636.91C592.103 636.404 593.322 636.798 593.829 637.788Z" fill="white"/>
<path d="M565.238 610.252C565.744 611.241 565.35 612.461 564.361 612.967C563.372 613.473 562.153 613.079 561.646 612.09C561.14 611.1 561.533 609.881 562.523 609.374C563.512 608.868 564.731 609.262 565.238 610.252Z" fill="white"/>
<path d="M541.943 629.609C542.449 630.598 542.056 631.818 541.067 632.324C540.077 632.831 538.858 632.436 538.352 631.447C537.845 630.457 538.239 629.238 539.228 628.732C540.217 628.225 541.436 628.619 541.943 629.609Z" fill="white"/>
<path d="M266.757 692.816C267.264 693.806 266.87 695.025 265.881 695.532C264.892 696.038 263.672 695.644 263.166 694.654C262.659 693.665 263.053 692.445 264.042 691.939C265.031 691.433 266.251 691.827 266.757 692.816Z" fill="white"/>
<path d="M326.792 715.229C327.784 714.721 328.176 713.506 327.668 712.514C327.161 711.521 325.945 711.129 324.953 711.636C323.962 712.144 323.569 713.359 324.077 714.352C324.585 715.344 325.801 715.737 326.792 715.229Z" fill="white"/>
<path d="M428.902 609.849C429.408 610.839 429.015 612.058 428.026 612.565C427.036 613.071 425.817 612.677 425.311 611.687C424.804 610.698 425.198 609.478 426.187 608.972C427.176 608.466 428.395 608.86 428.902 609.849Z" fill="white"/>
<path d="M334.582 546.6C335.574 546.092 335.966 544.877 335.458 543.885C334.95 542.892 333.735 542.5 332.743 543.007C331.751 543.515 331.359 544.73 331.867 545.723C332.375 546.715 333.59 547.107 334.582 546.6Z" fill="white"/>
<path d="M249.087 584.151C249.593 585.141 249.2 586.36 248.211 586.867C247.222 587.373 246.002 586.979 245.496 585.989C244.989 585 245.383 583.78 246.372 583.274C247.361 582.768 248.581 583.162 249.087 584.151Z" fill="white"/>
<path d="M868.839 205.676C869.345 206.665 868.952 207.885 867.963 208.391C866.973 208.898 865.754 208.503 865.248 207.514C864.741 206.524 865.135 205.305 866.124 204.799C867.113 204.292 868.332 204.686 868.839 205.676Z" fill="white"/>
<path d="M985.216 188.206C985.723 189.196 985.329 190.415 984.34 190.921C983.351 191.428 982.131 191.034 981.625 190.044C981.118 189.054 981.512 187.835 982.501 187.329C983.49 186.822 984.71 187.216 985.216 188.206Z" fill="white"/>
<path d="M893.568 285.811C894.074 286.8 893.681 288.02 892.692 288.526C891.703 289.032 890.483 288.638 889.977 287.649C889.47 286.659 889.864 285.44 890.853 284.933C891.842 284.427 893.061 284.821 893.568 285.811Z" fill="white"/>
<path d="M895.433 246.645C895.94 247.634 895.546 248.854 894.557 249.36C893.568 249.866 892.348 249.472 891.842 248.483C891.335 247.493 891.729 246.273 892.718 245.767C893.707 245.261 894.927 245.655 895.433 246.645Z" fill="white"/>
<path d="M1116.17 193.958C1117.16 193.45 1117.55 192.235 1117.04 191.243C1116.54 190.251 1115.32 189.858 1114.33 190.365C1113.34 190.873 1112.94 192.089 1113.45 193.081C1113.96 194.073 1115.18 194.466 1116.17 193.958Z" fill="white"/>
<path d="M918.051 347.417C918.557 348.407 918.164 349.627 917.175 350.133C916.186 350.639 914.966 350.245 914.46 349.255C913.953 348.266 914.347 347.046 915.336 346.54C916.325 346.034 917.544 346.428 918.051 347.417Z" fill="white"/>
<path d="M943.911 415.466C944.417 416.456 944.023 417.675 943.034 418.181C942.045 418.688 940.826 418.294 940.319 417.304C939.813 416.314 940.206 415.095 941.196 414.589C942.185 414.082 943.404 414.476 943.911 415.466Z" fill="white"/>
<path d="M1186.92 264.254C1187.43 265.244 1187.03 266.463 1186.04 266.969C1185.06 267.476 1183.84 267.082 1183.33 266.092C1182.82 265.103 1183.22 263.883 1184.21 263.377C1185.2 262.87 1186.41 263.265 1186.92 264.254Z" fill="white"/>
<path d="M1179.1 206.952C1180.09 206.445 1180.49 205.229 1179.98 204.237C1179.47 203.245 1178.25 202.852 1177.26 203.36C1176.27 203.867 1175.88 205.083 1176.39 206.075C1176.89 207.067 1178.11 207.46 1179.1 206.952Z" fill="white"/>
<path d="M1057.44 156.964C1058.44 156.457 1058.83 155.241 1058.32 154.249C1057.81 153.257 1056.6 152.864 1055.61 153.371C1054.61 153.879 1054.22 155.095 1054.73 156.087C1055.24 157.079 1056.45 157.472 1057.44 156.964Z" fill="white"/>
<path d="M1064 88.2496C1065 87.742 1065.39 86.5263 1064.88 85.5341C1064.37 84.542 1063.16 84.1492 1062.17 84.6568C1061.17 85.1643 1060.78 86.38 1061.29 87.3722C1061.8 88.3643 1063.01 88.7571 1064 88.2496Z" fill="white"/>
<path d="M920.942 133.574C921.449 134.564 921.055 135.783 920.066 136.289C919.077 136.796 917.858 136.402 917.351 135.412C916.845 134.422 917.238 133.203 918.227 132.697C919.217 132.19 920.436 132.584 920.942 133.574Z" fill="white"/>
<path d="M937.991 166.922C938.497 167.911 938.104 169.131 937.115 169.637C936.125 170.143 934.906 169.749 934.4 168.76C933.893 167.77 934.287 166.551 935.276 166.044C936.265 165.538 937.484 165.932 937.991 166.922Z" fill="white"/>
<path d="M1295.65 272.253C1296.64 271.745 1297.04 270.53 1296.53 269.538C1296.02 268.545 1294.8 268.153 1293.81 268.66C1292.82 269.168 1292.43 270.383 1292.94 271.376C1293.44 272.368 1294.66 272.76 1295.65 272.253Z" fill="white"/>
<path d="M1317.7 381.749C1318.21 382.739 1317.82 383.959 1316.83 384.465C1315.84 384.971 1314.62 384.577 1314.11 383.587C1313.61 382.598 1314 381.378 1314.99 380.872C1315.98 380.366 1317.2 380.76 1317.7 381.749Z" fill="white"/>
<path d="M1357.21 456.242C1358.2 455.734 1358.6 454.518 1358.09 453.526C1357.58 452.534 1356.36 452.141 1355.37 452.649C1354.38 453.156 1353.99 454.372 1354.5 455.364C1355 456.356 1356.22 456.749 1357.21 456.242Z" fill="white"/>
<path d="M1260.07 579.961C1260.58 580.95 1260.18 582.17 1259.19 582.676C1258.21 583.182 1256.99 582.788 1256.48 581.799C1255.97 580.809 1256.37 579.59 1257.36 579.083C1258.35 578.577 1259.56 578.971 1260.07 579.961Z" fill="white"/>
<path d="M1208.95 615.291C1209.45 616.28 1209.06 617.5 1208.07 618.006C1207.08 618.512 1205.86 618.118 1205.35 617.129C1204.85 616.139 1205.24 614.92 1206.23 614.413C1207.22 613.907 1208.44 614.301 1208.95 615.291Z" fill="white"/>
<path d="M1157.73 583.811C1158.72 583.303 1159.11 582.087 1158.61 581.095C1158.1 580.103 1156.88 579.71 1155.89 580.218C1154.9 580.725 1154.51 581.941 1155.02 582.933C1155.52 583.925 1156.74 584.318 1157.73 583.811Z" fill="white"/>
<path d="M1214.1 544.027C1215.1 543.52 1215.49 542.304 1214.98 541.312C1214.47 540.32 1213.26 539.927 1212.27 540.434C1211.27 540.942 1210.88 542.158 1211.39 543.15C1211.9 544.142 1213.11 544.535 1214.1 544.027Z" fill="white"/>
<path d="M1186.4 513.768C1186.91 514.757 1186.52 515.977 1185.53 516.483C1184.54 516.989 1183.32 516.595 1182.81 515.606C1182.31 514.616 1182.7 513.397 1183.69 512.89C1184.68 512.384 1185.9 512.778 1186.4 513.768Z" fill="white"/>
<path d="M1162.23 535.84C1163.23 535.333 1163.62 534.117 1163.11 533.125C1162.6 532.133 1161.39 531.74 1160.4 532.248C1159.4 532.755 1159.01 533.971 1159.52 534.963C1160.03 535.955 1161.24 536.348 1162.23 535.84Z" fill="white"/>
<path d="M887.033 599.055C888.025 598.548 888.417 597.332 887.909 596.34C887.401 595.348 886.186 594.955 885.194 595.463C884.202 595.97 883.81 597.186 884.318 598.178C884.826 599.17 886.041 599.563 887.033 599.055Z" fill="white"/>
<path d="M948.821 616.037C949.327 617.027 948.933 618.247 947.944 618.753C946.955 619.259 945.736 618.865 945.229 617.875C944.723 616.886 945.116 615.666 946.105 615.16C947.095 614.654 948.314 615.048 948.821 616.037Z" fill="white"/>
<path d="M1050.06 513.35C1050.57 514.34 1050.17 515.559 1049.19 516.066C1048.2 516.572 1046.98 516.178 1046.47 515.188C1045.96 514.199 1046.36 512.979 1047.35 512.473C1048.34 511.966 1049.55 512.361 1050.06 513.35Z" fill="white"/>
<path d="M955.734 450.124C956.726 449.616 957.118 448.401 956.61 447.408C956.102 446.416 954.887 446.023 953.895 446.531C952.903 447.039 952.511 448.254 953.019 449.246C953.527 450.239 954.742 450.631 955.734 450.124Z" fill="white"/>
<path d="M870.239 487.675C870.746 488.665 870.352 489.884 869.363 490.391C868.374 490.897 867.154 490.503 866.648 489.513C866.141 488.524 866.535 487.304 867.524 486.798C868.513 486.291 869.733 486.686 870.239 487.675Z" fill="white"/>
<path d="M624.272 357.3C624.779 358.289 624.385 359.509 623.396 360.015C622.407 360.522 621.188 360.127 620.681 359.138C620.175 358.148 620.568 356.929 621.557 356.422C622.546 355.916 623.766 356.31 624.272 357.3Z" fill="white"/>
<path d="M644.884 304.409C645.39 305.399 644.996 306.618 644.007 307.124C643.018 307.631 641.799 307.237 641.292 306.247C640.786 305.257 641.179 304.038 642.169 303.532C643.158 303.025 644.377 303.419 644.884 304.409Z" fill="white"/>
<path d="M628.409 340.544C629.4 340.036 629.793 338.82 629.285 337.828C628.777 336.836 627.562 336.443 626.57 336.951C625.578 337.458 625.186 338.674 625.694 339.666C626.202 340.658 627.417 341.051 628.409 340.544Z" fill="white"/>
<path d="M699.184 262.151C699.691 263.141 699.297 264.361 698.308 264.867C697.319 265.373 696.1 264.979 695.593 263.989C695.087 263 695.48 261.78 696.469 261.274C697.459 260.768 698.678 261.162 699.184 262.151Z" fill="white"/>
<path d="M754.935 275.518C755.442 276.508 755.048 277.727 754.059 278.233C753.07 278.74 751.851 278.346 751.344 277.356C750.838 276.366 751.231 275.147 752.22 274.641C753.21 274.134 754.429 274.528 754.935 275.518Z" fill="white"/>
<path d="M572.926 270.52C573.432 271.509 573.039 272.729 572.05 273.235C571.06 273.741 569.841 273.347 569.335 272.358C568.828 271.368 569.222 270.149 570.211 269.642C571.2 269.136 572.419 269.53 572.926 270.52Z" fill="white"/>
<path d="M524.194 384.929C525.185 384.421 525.578 383.205 525.07 382.213C524.562 381.221 523.347 380.828 522.355 381.336C521.363 381.843 520.971 383.059 521.479 384.051C521.986 385.043 523.202 385.436 524.194 384.929Z" fill="white"/>
<path d="M1070.93 618.169C1071.44 619.159 1071.04 620.379 1070.05 620.885C1069.06 621.391 1067.84 620.997 1067.34 620.007C1066.83 619.018 1067.22 617.798 1068.21 617.292C1069.2 616.786 1070.42 617.18 1070.93 618.169Z" fill="white"/>
</g>
<defs>
<clipPath id="clip0_101_3">
<rect width="1282.06" height="855.088" fill="white" transform="translate(0 337.107) rotate(-27.1035)"/>
</clipPath>
</defs>
</svg>
