<svg width="16" height="9" viewBox="0 0 16 9" fill="none" xmlns="http://www.w3.org/2000/svg">
<path fill-rule="evenodd" clip-rule="evenodd" d="M2.66259 3.10994C3.79803 4.37154 5.53122 5.60005 7.99949 5.60005C10.4678 5.60005 12.201 4.37154 13.3364 3.10994C13.9045 2.47872 14.3162 1.8457 14.5855 1.37045C14.7199 1.13335 14.8179 0.936996 14.8817 0.801797C14.9135 0.73424 14.9367 0.682083 14.9516 0.647893C14.959 0.630802 14.9643 0.618214 14.9675 0.610451L14.9708 0.602471C14.9707 0.602639 14.971 0.601979 15.4662 0.800055C15.9614 0.998132 15.9613 0.998361 15.9612 0.99861L15.9603 1.00078L15.9584 1.00537L15.9523 1.02026C15.9471 1.03268 15.9398 1.05004 15.9303 1.07201C15.9112 1.11594 15.8834 1.17837 15.8465 1.25665C15.7727 1.41311 15.6625 1.63343 15.5135 1.89633C15.2162 2.42108 14.7612 3.12139 14.1293 3.8235C13.9342 4.04025 13.7216 4.25778 13.4911 4.47069L15.31 6.2896L14.5557 7.04384L12.6626 5.15069C11.5875 5.92962 10.2209 6.542 8.53283 6.64983L8.53284 8.80005L7.46618 8.80006L7.46616 6.64983C5.77813 6.54201 4.41146 5.92963 3.33645 5.15069L1.4433 7.04384L0.689054 6.2896L2.50795 4.4707C2.27739 4.25778 2.06482 4.04025 1.86974 3.8235C1.23784 3.12138 0.782851 2.42107 0.485496 1.89633C0.336518 1.63342 0.226275 1.41311 0.152512 1.25664C0.115611 1.17837 0.087779 1.11594 0.0687407 1.07201C0.0592197 1.05004 0.0518923 1.03268 0.0467243 1.02026L0.0405854 1.00537L0.0387212 1.00078L0.0380889 0.999209C0.037989 0.998959 0.0376559 0.998129 0.532844 0.800055C1.02803 0.601982 1.02796 0.601793 1.02789 0.601625L1.03153 0.610454C1.03476 0.618217 1.04006 0.630804 1.04747 0.647895C1.06228 0.682085 1.08549 0.734243 1.11734 0.8018C1.18108 0.936999 1.27917 1.13335 1.41352 1.37045C1.68283 1.8457 2.0945 2.47873 2.66259 3.10994ZM1.02789 0.601625C1.02784 0.601508 1.02787 0.601583 1.02789 0.601625V0.601625Z" fill="#FF868E"/>
</svg>
